<svg version="1.1" id="Layer_1" xmlns="http://www.w3.org/2000/svg" xmlns:xlink="http://www.w3.org/1999/xlink" x="0px" y="0px"
	 width="100%" viewBox="0 0 512 512" enable-background="new 0 0 512 512" xml:space="preserve">
<path fill="#E4F4FE" opacity="1.000000" stroke="none" 
	d="
M257.000000,513.000000 
	C202.645767,513.000000 148.291550,513.000000 93.770203,512.686096 
	C93.139076,511.930634 92.748840,511.253082 92.200386,511.081635 
	C72.804382,505.017853 60.964489,486.315277 61.034775,466.975952 
	C61.275959,400.611328 61.789288,334.247589 61.964275,267.882874 
	C62.129810,205.102951 62.192692,142.321167 61.834187,79.542854 
	C61.764027,67.256294 64.476730,56.361725 72.066040,46.939171 
	C79.673431,37.494171 89.695976,31.467813 101.972778,31.128710 
	C120.276825,30.623127 138.604736,30.981682 156.952896,31.441154 
	C156.989365,37.887920 156.974869,43.866203 157.006805,49.844238 
	C157.045715,57.126953 160.629440,60.958054 167.879410,60.967373 
	C197.603104,61.005573 227.326981,60.928631 257.009918,60.946022 
	C256.969055,60.997971 256.938232,61.126514 256.958008,61.586830 
	C256.985168,102.839752 256.986572,143.632355 257.015656,184.424942 
	C257.017334,186.746338 257.245728,189.067581 257.307129,191.801086 
	C257.288330,195.011993 257.330994,197.810684 257.268311,201.092316 
	C257.108643,226.364761 257.031982,251.154266 257.018250,275.943817 
	C257.015381,281.092102 257.245758,286.240509 257.307159,291.801056 
	C257.288361,295.011963 257.330994,297.810638 257.268311,301.092255 
	C257.108612,326.364594 257.032013,351.154022 257.018250,375.943451 
	C257.015381,381.091736 257.245483,386.240143 257.306763,391.800720 
	C257.287994,395.011932 257.330688,397.810913 257.268097,401.092773 
	C257.108521,438.717133 257.054260,475.858551 257.000000,513.000000 
M130.097382,296.186188 
	C129.715622,300.718506 129.560593,305.331635 133.004929,308.838654 
	C140.337585,316.304840 147.497177,324.012573 155.442703,330.782074 
	C161.517380,335.957642 168.194885,335.076660 174.216782,329.164276 
	C189.418839,314.238708 204.467773,299.154816 219.423111,283.981628 
	C224.523193,278.807281 224.721649,268.881775 220.315582,263.791473 
	C214.757294,257.369995 204.634491,256.793243 198.511154,262.802887 
	C188.414108,272.712494 178.419189,282.728424 168.529343,292.844330 
	C167.057388,294.349915 166.392929,296.644958 165.354889,298.574768 
	C160.052017,293.647491 156.880615,290.141632 153.093704,287.527374 
	C149.193375,284.834839 144.656570,284.216583 139.851227,285.831726 
	C134.962677,287.474823 132.362305,291.094971 130.097382,296.186188 
M206.999146,396.499176 
	C211.233292,392.255707 215.620987,388.152679 219.663101,383.733582 
	C224.836151,378.078125 224.558853,367.859680 219.375504,362.815186 
	C213.609573,357.203827 204.152771,357.222595 198.242523,363.052429 
	C188.521759,372.640991 178.857956,382.289215 169.307083,392.046326 
	C167.588547,393.802002 166.529465,396.203186 165.165924,398.306335 
	C164.387650,398.056824 163.609375,397.807281 162.831116,397.557770 
	C160.672165,395.032959 158.688187,392.328979 156.320847,390.017609 
	C149.715851,383.568695 140.486008,383.301056 134.437714,389.098083 
	C128.820801,394.481720 127.627785,403.951996 134.935883,411.243378 
	C140.594131,416.888672 146.149063,422.641205 151.916016,428.172943 
	C160.016342,435.942780 167.669525,435.759796 175.759811,427.722778 
	C186.037369,417.512848 196.255402,407.243073 206.999146,396.499176 
M222.914520,170.730118 
	C223.066299,165.120926 224.201996,159.176697 219.162140,154.919052 
	C213.621094,150.238022 204.498978,148.803314 198.026260,155.388458 
	C187.985397,165.603683 177.796875,175.673874 167.653824,185.788361 
	C166.402802,187.035889 165.046768,188.178101 162.528656,190.472092 
	C160.171112,187.508972 158.307114,184.701828 155.987381,182.342850 
	C150.372055,176.632538 139.309769,176.232376 134.374634,181.346832 
	C128.216995,187.728210 128.281021,196.587173 134.664886,203.127258 
	C140.249039,208.848038 146.241333,214.195724 151.538330,220.165207 
	C158.485901,227.994797 168.894226,227.198853 175.547043,220.298355 
	C189.648544,205.671906 204.226440,191.505402 218.538223,177.080093 
	C220.148209,175.457336 221.303131,173.383087 222.914520,170.730118 
z"/>
<path fill="#C1DBFC" opacity="1.000000" stroke="none" 
	d="
M257.368195,391.388489 
	C257.245483,386.240143 257.015381,381.091736 257.018250,375.943451 
	C257.032013,351.154022 257.108612,326.364594 257.480896,301.359436 
	C261.225342,308.585571 267.183533,311.261444 275.159882,311.070587 
	C286.650238,310.795746 298.152039,311.000732 309.648956,311.000488 
	C332.476166,311.000031 355.303436,311.037750 378.130493,310.974518 
	C384.707184,310.956299 390.587830,306.897614 392.599701,301.341461 
	C394.755493,295.387817 392.992584,287.690918 387.590912,284.381805 
	C384.265411,282.344604 379.868561,281.170074 375.941284,281.140778 
	C342.785370,280.893341 309.625275,281.175568 276.470123,280.880737 
	C267.742096,280.803131 261.178436,283.224792 257.368622,291.388855 
	C257.245758,286.240509 257.015381,281.092102 257.018250,275.943817 
	C257.031982,251.154266 257.108643,226.364761 257.480927,201.359467 
	C261.225281,208.585739 267.183746,211.261459 275.159943,211.070801 
	C286.650299,210.796143 298.152100,211.000916 309.649017,211.000656 
	C332.476227,211.000168 355.303558,211.037872 378.130585,210.974503 
	C384.707458,210.956253 390.587921,206.897476 392.599731,201.341400 
	C394.755524,195.387695 392.992584,187.690979 387.590851,184.381805 
	C384.265381,182.344574 379.868500,181.169907 375.941254,181.140594 
	C342.785339,180.893143 309.625214,181.175552 276.470062,180.880371 
	C267.741455,180.802673 261.178497,183.225067 257.368591,191.388885 
	C257.245728,189.067581 257.017334,186.746338 257.015656,184.424942 
	C256.986572,143.632355 256.985168,102.839752 257.429565,61.541664 
	C287.104858,61.024006 316.328369,61.018959 345.551849,60.994892 
	C353.295349,60.988514 356.970398,57.236301 356.999847,49.393711 
	C357.022919,43.250599 357.044769,37.107475 357.531372,30.980587 
	C373.971069,30.997837 389.959198,31.386333 405.917786,30.867016 
	C417.012360,30.505978 426.836151,33.291588 435.334900,40.118996 
	C445.092407,47.957668 451.217957,58.035297 452.025024,71.337250 
	C452.005676,117.777641 451.994110,163.740631 452.036713,209.703552 
	C452.038330,211.462616 452.562286,213.221191 452.922180,215.378891 
	C452.949341,216.857285 452.897156,217.936798 452.589844,219.340729 
	C452.221680,226.066406 451.981995,232.468826 452.041565,238.868469 
	C452.079132,242.909210 452.563782,246.945801 452.924500,251.321014 
	C452.948181,252.112137 452.895233,252.566498 452.600311,253.313843 
	C452.521301,256.065125 452.684265,258.523438 452.916748,261.425476 
	C452.657501,265.615601 452.045441,269.361786 452.042114,273.108490 
	C451.985229,337.698151 451.694824,402.290222 452.196442,466.876007 
	C452.343506,485.811554 439.875183,505.855957 421.459351,511.076813 
	C420.840881,511.252136 420.480621,512.338379 420.000000,513.000000 
	C365.979095,513.000000 311.958221,513.000000 257.468658,513.000000 
	C257.054260,475.858551 257.108521,438.717133 257.480896,401.360107 
	C260.483063,407.107971 264.972534,410.906342 271.593231,410.929962 
	C307.533173,411.058319 343.473969,411.037933 379.414093,410.935333 
	C384.294159,410.921387 388.425415,408.731445 391.204315,404.540527 
	C394.625122,399.381470 395.060974,394.061890 391.888702,388.569031 
	C388.837341,383.285614 384.131195,381.015900 378.226715,381.011749 
	C344.282959,380.987854 310.337799,381.166595 276.396393,380.883972 
	C267.698273,380.811523 261.128082,383.195709 257.368195,391.388489 
z"/>

<path fill="#6E79DE" opacity="1.000000" stroke="none" 
	d="
M352.531342,1.000000 
	C360.212708,9.865469 355.780853,20.338930 357.038025,30.497593 
	C357.044769,37.107475 357.022919,43.250599 356.999847,49.393711 
	C356.970398,57.236301 353.295349,60.988514 345.551849,60.994892 
	C316.328369,61.018959 287.104858,61.024006 257.409790,61.081345 
	C256.938232,61.126514 256.969055,60.997971 256.993469,60.485729 
	C257.011902,40.315659 257.005951,20.657829 257.000000,1.000000 
	C288.687561,1.000000 320.375122,1.000000 352.531342,1.000000 
z"/>
<path fill="#7B87E1" opacity="1.000000" stroke="none" 
	d="
M256.531311,1.000000 
	C257.005951,20.657829 257.011902,40.315659 257.034302,60.433777 
	C227.326981,60.928631 197.603104,61.005573 167.879410,60.967373 
	C160.629440,60.958054 157.045715,57.126953 157.006805,49.844238 
	C156.974869,43.866203 156.989365,37.887920 156.952896,31.441154 
	C156.948334,24.497269 157.263794,18.005629 156.899582,11.552348 
	C156.651138,7.150418 158.299988,4.117425 161.293060,1.310396 
	C192.687561,1.000000 224.375122,1.000000 256.531311,1.000000 
z"/>
<path fill="#50B1BA" opacity="1.000000" stroke="none" 
	d="
M257.306763,391.800720 
	C261.128082,383.195709 267.698273,380.811523 276.396393,380.883972 
	C310.337799,381.166595 344.282959,380.987854 378.226715,381.011749 
	C384.131195,381.015900 388.837341,383.285614 391.888702,388.569031 
	C395.060974,394.061890 394.625122,399.381470 391.204315,404.540527 
	C388.425415,408.731445 384.294159,410.921387 379.414093,410.935333 
	C343.473969,411.037933 307.533173,411.058319 271.593231,410.929962 
	C264.972534,410.906342 260.483063,407.107971 257.586182,400.877228 
	C257.330688,397.810913 257.287994,395.011932 257.306763,391.800720 
z"/>
<path fill="#50B1BA" opacity="1.000000" stroke="none" 
	d="
M257.307129,191.801086 
	C261.178497,183.225067 267.741455,180.802673 276.470062,180.880371 
	C309.625214,181.175552 342.785339,180.893143 375.941254,181.140594 
	C379.868500,181.169907 384.265381,182.344574 387.590851,184.381805 
	C392.992584,187.690979 394.755524,195.387695 392.599731,201.341400 
	C390.587921,206.897476 384.707458,210.956253 378.130585,210.974503 
	C355.303558,211.037872 332.476227,211.000168 309.649017,211.000656 
	C298.152100,211.000916 286.650299,210.796143 275.159943,211.070801 
	C267.183746,211.261459 261.225281,208.585739 257.586273,200.876556 
	C257.330994,197.810684 257.288330,195.011993 257.307129,191.801086 
z"/>
<path fill="#50B1BA" opacity="1.000000" stroke="none" 
	d="
M257.307159,291.801056 
	C261.178436,283.224792 267.742096,280.803131 276.470123,280.880737 
	C309.625275,281.175568 342.785370,280.893341 375.941284,281.140778 
	C379.868561,281.170074 384.265411,282.344604 387.590912,284.381805 
	C392.992584,287.690918 394.755493,295.387817 392.599701,301.341461 
	C390.587830,306.897614 384.707184,310.956299 378.130493,310.974518 
	C355.303436,311.037750 332.476166,311.000031 309.648956,311.000488 
	C298.152039,311.000732 286.650238,310.795746 275.159882,311.070587 
	C267.183533,311.261444 261.225342,308.585571 257.586243,300.876526 
	C257.330994,297.810638 257.288361,295.011963 257.307159,291.801056 
z"/>
<path fill="#61D2DB" opacity="1.000000" stroke="none" 
	d="
M130.190643,295.787354 
	C132.362305,291.094971 134.962677,287.474823 139.851227,285.831726 
	C144.656570,284.216583 149.193375,284.834839 153.093704,287.527374 
	C156.880615,290.141632 160.052017,293.647491 165.354889,298.574768 
	C166.392929,296.644958 167.057388,294.349915 168.529343,292.844330 
	C178.419189,282.728424 188.414108,272.712494 198.511154,262.802887 
	C204.634491,256.793243 214.757294,257.369995 220.315582,263.791473 
	C224.721649,268.881775 224.523193,278.807281 219.423111,283.981628 
	C204.467773,299.154816 189.418839,314.238708 174.216782,329.164276 
	C168.194885,335.076660 161.517380,335.957642 155.442703,330.782074 
	C147.497177,324.012573 140.337585,316.304840 133.004929,308.838654 
	C129.560593,305.331635 129.715622,300.718506 130.190643,295.787354 
z"/>
<path fill="#61D2DB" opacity="1.000000" stroke="none" 
	d="
M206.749115,396.749146 
	C196.255402,407.243073 186.037369,417.512848 175.759811,427.722778 
	C167.669525,435.759796 160.016342,435.942780 151.916016,428.172943 
	C146.149063,422.641205 140.594131,416.888672 134.935883,411.243378 
	C127.627785,403.951996 128.820801,394.481720 134.437714,389.098083 
	C140.486008,383.301056 149.715851,383.568695 156.320847,390.017609 
	C158.688187,392.328979 160.672165,395.032959 162.831116,397.557770 
	C163.609375,397.807281 164.387650,398.056824 165.165924,398.306335 
	C166.529465,396.203186 167.588547,393.802002 169.307083,392.046326 
	C178.857956,382.289215 188.521759,372.640991 198.242523,363.052429 
	C204.152771,357.222595 213.609573,357.203827 219.375504,362.815186 
	C224.558853,367.859680 224.836151,378.078125 219.663101,383.733582 
	C215.620987,388.152679 211.233292,392.255707 206.749115,396.749146 
z"/>
<path fill="#61D2DB" opacity="1.000000" stroke="none" 
	d="
M222.791794,171.124161 
	C221.303131,173.383087 220.148209,175.457336 218.538223,177.080093 
	C204.226440,191.505402 189.648544,205.671906 175.547043,220.298355 
	C168.894226,227.198853 158.485901,227.994797 151.538330,220.165207 
	C146.241333,214.195724 140.249039,208.848038 134.664886,203.127258 
	C128.281021,196.587173 128.216995,187.728210 134.374634,181.346832 
	C139.309769,176.232376 150.372055,176.632538 155.987381,182.342850 
	C158.307114,184.701828 160.171112,187.508972 162.528656,190.472092 
	C165.046768,188.178101 166.402802,187.035889 167.653824,185.788361 
	C177.796875,175.673874 187.985397,165.603683 198.026260,155.388458 
	C204.498978,148.803314 213.621094,150.238022 219.162140,154.919052 
	C224.201996,159.176697 223.066299,165.120926 222.791794,171.124161 
z"/>
<path fill="#D2E7FE" opacity="1.000000" stroke="none" 
	d="
M452.025024,71.337250 
	C452.360413,72.361084 452.955322,73.862068 452.956787,75.363625 
	C453.001678,121.593887 452.988464,167.824203 452.913513,214.517242 
	C452.562286,213.221191 452.038330,211.462616 452.036713,209.703552 
	C451.994110,163.740631 452.005676,117.777641 452.025024,71.337250 
z"/>
<path fill="#D2E7FE" opacity="1.000000" stroke="none" 
	d="
M452.589844,219.340729 
	C452.893768,229.363571 452.942505,239.710861 452.919556,250.521194 
	C452.563782,246.945801 452.079132,242.909210 452.041565,238.868469 
	C451.981995,232.468826 452.221680,226.066406 452.589844,219.340729 
z"/>
<path fill="#D2E7FE" opacity="1.000000" stroke="none" 
	d="
M452.600281,253.313843 
	C452.896332,255.383438 452.950439,257.746033 452.925903,260.545166 
	C452.684265,258.523438 452.521301,256.065125 452.600281,253.313843 
z"/>
</svg>